<svg id="visual" viewBox="0 0 900 600" width="900" height="600" xmlns="http://www.w3.org/2000/svg" xmlns:xlink="http://www.w3.org/1999/xlink" version="1.1"><g transform="translate(444.1301280469821 347.1425944053456)"><path d="M160.8 -265.5C203.7 -222.6 230.5 -170.1 216.5 -122C202.6 -73.9 147.7 -30.3 144.8 24C142 78.3 191.2 143.3 188.1 183.3C185 223.3 129.7 238.3 82.5 228C35.2 217.8 -3.9 182.3 -42.3 162.6C-80.6 142.8 -118.2 138.9 -136.9 118.1C-155.6 97.4 -155.5 59.9 -171.1 18.4C-186.7 -23 -218 -68.4 -205.7 -93.3C-193.4 -118.2 -137.5 -122.6 -96 -166.2C-54.4 -209.7 -27.2 -292.3 15.9 -317C58.9 -341.7 117.9 -308.4 160.8 -265.5" fill="#1684A7"></path></g></svg>