<svg id="visual" viewBox="0 0 900 600" width="900" height="600" xmlns="http://www.w3.org/2000/svg" xmlns:xlink="http://www.w3.org/1999/xlink" version="1.1"><rect x="0" y="0" width="900" height="600" fill="#222831"></rect><path d="M541 600L550.8 585.7C560.7 571.3 580.3 542.7 582.7 514.2C585 485.7 570 457.3 570.3 428.8C570.7 400.3 586.3 371.7 598 343C609.7 314.3 617.3 285.7 610.7 257C604 228.3 583 199.7 585.3 171.2C587.7 142.7 613.3 114.3 626.2 85.8C639 57.3 639 28.7 639 14.3L639 0L900 0L900 14.3C900 28.7 900 57.3 900 85.8C900 114.3 900 142.7 900 171.2C900 199.7 900 228.3 900 257C900 285.7 900 314.3 900 343C900 371.7 900 400.3 900 428.8C900 457.3 900 485.7 900 514.2C900 542.7 900 571.3 900 585.7L900 600Z" fill="#393e46"></path><path d="M688 600L675.7 585.7C663.3 571.3 638.7 542.7 624.7 514.2C610.7 485.7 607.3 457.3 618 428.8C628.7 400.3 653.3 371.7 658.3 343C663.3 314.3 648.7 285.7 651.8 257C655 228.3 676 199.7 676 171.2C676 142.7 655 114.3 641.8 85.8C628.7 57.3 623.3 28.7 620.7 14.3L618 0L900 0L900 14.3C900 28.7 900 57.3 900 85.8C900 114.3 900 142.7 900 171.2C900 199.7 900 228.3 900 257C900 285.7 900 314.3 900 343C900 371.7 900 400.3 900 428.8C900 457.3 900 485.7 900 514.2C900 542.7 900 571.3 900 585.7L900 600Z" fill="#3f5768"></path><path d="M707 600L704.8 585.7C702.7 571.3 698.3 542.7 706.3 514.2C714.3 485.7 734.7 457.3 744.5 428.8C754.3 400.3 753.7 371.7 747.3 343C741 314.3 729 285.7 724 257C719 228.3 721 199.7 726.5 171.2C732 142.7 741 114.3 743 85.8C745 57.3 740 28.7 737.5 14.3L735 0L900 0L900 14.3C900 28.7 900 57.3 900 85.8C900 114.3 900 142.7 900 171.2C900 199.7 900 228.3 900 257C900 285.7 900 314.3 900 343C900 371.7 900 400.3 900 428.8C900 457.3 900 485.7 900 514.2C900 542.7 900 571.3 900 585.7L900 600Z" fill="#3a7288"></path><path d="M746 600L752.2 585.7C758.3 571.3 770.7 542.7 770.2 514.2C769.7 485.7 756.3 457.3 749.5 428.8C742.7 400.3 742.3 371.7 752.7 343C763 314.3 784 285.7 781.5 257C779 228.3 753 199.7 744 171.2C735 142.7 743 114.3 751 85.8C759 57.3 767 28.7 771 14.3L775 0L900 0L900 14.3C900 28.7 900 57.3 900 85.8C900 114.3 900 142.7 900 171.2C900 199.7 900 228.3 900 257C900 285.7 900 314.3 900 343C900 371.7 900 400.3 900 428.8C900 457.3 900 485.7 900 514.2C900 542.7 900 571.3 900 585.7L900 600Z" fill="#278fa2"></path><path d="M843 600L844 585.7C845 571.3 847 542.7 843.2 514.2C839.3 485.7 829.7 457.3 828 428.8C826.3 400.3 832.7 371.7 839.5 343C846.3 314.3 853.7 285.7 855.8 257C858 228.3 855 199.7 851.7 171.2C848.3 142.7 844.7 114.3 846.5 85.8C848.3 57.3 855.7 28.7 859.3 14.3L863 0L900 0L900 14.3C900 28.7 900 57.3 900 85.8C900 114.3 900 142.7 900 171.2C900 199.7 900 228.3 900 257C900 285.7 900 314.3 900 343C900 371.7 900 400.3 900 428.8C900 457.3 900 485.7 900 514.2C900 542.7 900 571.3 900 585.7L900 600Z" fill="#00adb5"></path></svg>