<svg id="visual" viewBox="0 0 900 600" width="900" height="600" xmlns="http://www.w3.org/2000/svg" xmlns:xlink="http://www.w3.org/1999/xlink" version="1.1"><path d="M0 498L21.5 500.2C43 502.3 86 506.7 128.8 486.3C171.7 466 214.3 421 257.2 407.7C300 394.3 343 412.7 385.8 436.7C428.7 460.7 471.3 490.3 514.2 489.2C557 488 600 456 642.8 436.5C685.7 417 728.3 410 771.2 408.7C814 407.3 857 411.7 878.5 413.8L900 416L900 601L878.5 601C857 601 814 601 771.2 601C728.3 601 685.7 601 642.8 601C600 601 557 601 514.2 601C471.3 601 428.7 601 385.8 601C343 601 300 601 257.2 601C214.3 601 171.7 601 128.8 601C86 601 43 601 21.5 601L0 601Z" fill="#0066FF" stroke-linecap="round" stroke-linejoin="miter"></path></svg>